# xmcd CD database file
#
# Track frame offsets:
#	150
#	11625
#	19930
#	32110
#	41572
#	51640
#	66055
#	79427
#	98300
#	107792
#	135430
#	147647
#	159980
#	171575
#	192990
#	202570
#	214572
#	227375
#	238445
#	261562
#
# Disc length: 3654 seconds
#
# Revision: 0
# Processed by: cddbd v1.5PL3 Copyright (c) Steve Scherf et al.
# Submitted via: CDex 1.51
#
DISCID=1d0e4414
DTITLE=Various Artist - Legendary Blues Men
DYEAR=1993
DGENRE=Blues
TTITLE0=John Lee Hooker - Boom Boom
TTITLE1=Muddy waters - I'm ready
TTITLE2=linghtnin' slim - rooster blues
TTITLE3=lightnin hopkins- tell me pretty mama
TTITLE4=memphis slim - caledonia
TTITLE5=ray charles - blues is my middle name
TTITLE6=elmore james - dust my broom
TTITLE7=swamp dog - mamas baby, daddy's maybe
TTITLE8=howlin wolf - somone walkin in my house
TTITLE9=sonny terry and brownie mcghee - blowin the fuses
TTITLE10=john lee hooker - im in the mood for love
TTITLE11=ray charles - see see rider
TTITLE12=elmore james - goodbye baby
TTITLE13=sonny terry and brownie mcghee  - blues for the lowlands
TTITLE14=john lee hooker - frisco blues
TTITLE15=ray charles - tell me baby
TTITLE16=jimmy reed - caress me baby
TTITLE17=john lee hooker - maudie
TTITLE18=sonny terry and brownie mcghee  - drinkin in the blues
TTITLE19=ray charles - going down slowly
EXTD=YEAR: 1993
EXTT0=
EXTT1=
EXTT2=
EXTT3=
EXTT4=
EXTT5=
EXTT6=
EXTT7=
EXTT8=
EXTT9=
EXTT10=
EXTT11=
EXTT12=
EXTT13=
EXTT14=
EXTT15=
EXTT16=
EXTT17=
EXTT18=
EXTT19=
PLAYORDER=
